HIERARCHY
ROOT hip
{
OFFSET 0.33 96.62 -0.53
CHANNELS 6 Xposition Yposition Zposition Zrotation Xrotation Yrotation
JOINT abdomen
{
OFFSET 0.04 7.24 0
CHANNELS 6 Xposition Yposition Zposition Zrotation Xrotation Yrotation
JOINT chest
{
OFFSET 0 16.55 -0
CHANNELS 6 Xposition Yposition Zposition Zrotation Xrotation Yrotation
JOINT neck
{
OFFSET -0 34.21 -0
CHANNELS 6 Xposition Yposition Zposition Zrotation Xrotation Yrotation
JOINT head
{
OFFSET 0 6.29 0
CHANNELS 6 Xposition Yposition Zposition Zrotation Xrotation Yrotation
End Site
{
OFFSET 0 0 0
}
}
}
JOINT lCollar
{
OFFSET 4.06 26.61 -1.12
CHANNELS 6 Xposition Yposition Zposition Zrotation Xrotation Yrotation
JOINT lShldr
{
OFFSET 14.17 0 0
CHANNELS 6 Xposition Yposition Zposition Zrotation Xrotation Yrotation
JOINT lForeArm
{
OFFSET 26.12 0 0
CHANNELS 6 Xposition Yposition Zposition Zrotation Xrotation Yrotation
JOINT lHand
{
OFFSET 27.71 0 0
CHANNELS 6 Xposition Yposition Zposition Zrotation Xrotation Yrotation
JOINT lThumb1
{
OFFSET 2.29 -0.46 1.83
CHANNELS 6 Xposition Yposition Zposition Zrotation Xrotation Yrotation
JOINT lThumb2
{
OFFSET 5.29 0 0
CHANNELS 6 Xposition Yposition Zposition Zrotation Xrotation Yrotation
JOINT lThumb3
{
OFFSET 3.01 0 0
CHANNELS 6 Xposition Yposition Zposition Zrotation Xrotation Yrotation
End Site
{
OFFSET 0 0 0
}
}
}
}
JOINT lIndex1
{
OFFSET 9.37 0.29 2.59
CHANNELS 6 Xposition Yposition Zposition Zrotation Xrotation Yrotation
JOINT lIndex2
{
OFFSET 4.34 0 0
CHANNELS 6 Xposition Yposition Zposition Zrotation Xrotation Yrotation
JOINT lIndex3
{
OFFSET 2.16 0 0
CHANNELS 6 Xposition Yposition Zposition Zrotation Xrotation Yrotation
End Site
{
OFFSET 0 0 0
}
}
}
}
JOINT lMid1
{
OFFSET 9.47 0.83 0.29
CHANNELS 6 Xposition Yposition Zposition Zrotation Xrotation Yrotation
JOINT lMid2
{
OFFSET 4.77 0 0
CHANNELS 6 Xposition Yposition Zposition Zrotation Xrotation Yrotation
JOINT lMid3
{
OFFSET 2.87 0 0
CHANNELS 6 Xposition Yposition Zposition Zrotation Xrotation Yrotation
End Site
{
OFFSET 0 0 0
}
}
}
}
JOINT lRing1
{
OFFSET 8.65 1.01 -1.70
CHANNELS 6 Xposition Yposition Zposition Zrotation Xrotation Yrotation
JOINT lRing2
{
OFFSET 4.54 0 0
CHANNELS 6 Xposition Yposition Zposition Zrotation Xrotation Yrotation
JOINT lRing3
{
OFFSET 2.50 0 0
CHANNELS 6 Xposition Yposition Zposition Zrotation Xrotation Yrotation
End Site
{
OFFSET 0 0 0
}
}
}
}
JOINT lPinky1
{
OFFSET 7.69 0.66 -3.90
CHANNELS 6 Xposition Yposition Zposition Zrotation Xrotation Yrotation
JOINT lPinky2
{
OFFSET 3.21 0 0
CHANNELS 6 Xposition Yposition Zposition Zrotation Xrotation Yrotation
JOINT lPinky3
{
OFFSET 1.92 0 0
CHANNELS 6 Xposition Yposition Zposition Zrotation Xrotation Yrotation
End Site
{
OFFSET 0 0 0
}
}
}
}
}
}
}
}
JOINT rCollar
{
OFFSET -4.06 26.61 -1.12
CHANNELS 6 Xposition Yposition Zposition Zrotation Xrotation Yrotation
JOINT rShldr
{
OFFSET -14.17 0 0
CHANNELS 6 Xposition Yposition Zposition Zrotation Xrotation Yrotation
JOINT rForeArm
{
OFFSET -26.12 0 0
CHANNELS 6 Xposition Yposition Zposition Zrotation Xrotation Yrotation
JOINT rHand
{
OFFSET -27.71 0 0
CHANNELS 6 Xposition Yposition Zposition Zrotation Xrotation Yrotation
JOINT rThumb1
{
OFFSET -2.29 -0.46 1.83
CHANNELS 6 Xposition Yposition Zposition Zrotation Xrotation Yrotation
JOINT rThumb2
{
OFFSET -5.29 0 0
CHANNELS 6 Xposition Yposition Zposition Zrotation Xrotation Yrotation
JOINT rThumb3
{
OFFSET -3.01 0 0
CHANNELS 6 Xposition Yposition Zposition Zrotation Xrotation Yrotation
End Site
{
OFFSET 0 0 0
}
}
}
}
JOINT rIndex1
{
OFFSET -9.37 0.29 2.59
CHANNELS 6 Xposition Yposition Zposition Zrotation Xrotation Yrotation
JOINT rIndex2
{
OFFSET -4.34 0 0
CHANNELS 6 Xposition Yposition Zposition Zrotation Xrotation Yrotation
JOINT rIndex3
{
OFFSET -2.16 0 0
CHANNELS 6 Xposition Yposition Zposition Zrotation Xrotation Yrotation
End Site
{
OFFSET 0 0 0
}
}
}
}
JOINT rMid1
{
OFFSET -9.47 0.83 0.29
CHANNELS 6 Xposition Yposition Zposition Zrotation Xrotation Yrotation
JOINT rMid2
{
OFFSET -4.77 0 0
CHANNELS 6 Xposition Yposition Zposition Zrotation Xrotation Yrotation
JOINT rMid3
{
OFFSET -2.87 0 0
CHANNELS 6 Xposition Yposition Zposition Zrotation Xrotation Yrotation
End Site
{
OFFSET 0 0 0
}
}
}
}
JOINT rRing1
{
OFFSET -8.65 1.01 -1.70
CHANNELS 6 Xposition Yposition Zposition Zrotation Xrotation Yrotation
JOINT rRing2
{
OFFSET -4.54 0 0
CHANNELS 6 Xposition Yposition Zposition Zrotation Xrotation Yrotation
JOINT rRing3
{
OFFSET -2.50 0 0
CHANNELS 6 Xposition Yposition Zposition Zrotation Xrotation Yrotation
End Site
{
OFFSET 0 0 0
}
}
}
}
JOINT rPinky1
{
OFFSET -7.69 0.66 -3.90
CHANNELS 6 Xposition Yposition Zposition Zrotation Xrotation Yrotation
JOINT rPinky2
{
OFFSET -3.21 0 0
CHANNELS 6 Xposition Yposition Zposition Zrotation Xrotation Yrotation
JOINT rPinky3
{
OFFSET -1.92 0 0
CHANNELS 6 Xposition Yposition Zposition Zrotation Xrotation Yrotation
End Site
{
OFFSET 0 0 0
}
}
}
}
}
}
}
}
}
}
JOINT lThigh
{
OFFSET 8.73 -0 0
CHANNELS 6 Xposition Yposition Zposition Zrotation Xrotation Yrotation
JOINT lShin
{
OFFSET 0 -46.66 0
CHANNELS 6 Xposition Yposition Zposition Zrotation Xrotation Yrotation
JOINT lFoot
{
OFFSET 0 -40.14 0
CHANNELS 6 Xposition Yposition Zposition Zrotation Xrotation Yrotation
JOINT lToes
{
OFFSET 0 -8.88 14.22
CHANNELS 6 Xposition Yposition Zposition Zrotation Xrotation Yrotation
End Site
{
OFFSET 0 0 0
}
}
}
}
}
JOINT rThigh
{
OFFSET -8.73 0 -0
CHANNELS 6 Xposition Yposition Zposition Zrotation Xrotation Yrotation
JOINT rShin
{
OFFSET 0 -46.66 0
CHANNELS 6 Xposition Yposition Zposition Zrotation Xrotation Yrotation
JOINT rFoot
{
OFFSET 0 -40.14 0
CHANNELS 6 Xposition Yposition Zposition Zrotation Xrotation Yrotation
JOINT rToes
{
OFFSET 0 -8.88 14.22
CHANNELS 6 Xposition Yposition Zposition Zrotation Xrotation Yrotation
End Site
{
OFFSET 0 0 0
}
}
}
}
}
}
MOTION
Frames: 4
Frame Time: 0.03
0.33 96.62 -0.53 0.14 -2.98 -4.05 0.04 7.24 0 -0.45 0.53 -0.06 0 16.55 -0 -2.03 8.79 -0.06 -0 34.21 -0 -0.30 23.92 1.21 0 6.29 0 0 -26.97 0 4.06 26.61 -1.12 -0.65 -4.68 10.26 14.17 0 0 -41.40 63.81 -26.99 26.12 0 0 0 0 -25.43 27.71 0 0 -12.83 -23.24 11.13 2.29 -0.46 1.83 137.54 37.89 -164.22 5.29 0 0 -20.94 0.13 7.99 3.01 0 0 12.48 0 0 9.37 0.29 2.59 -12.94 1.90 -3.11 4.34 0 0 -7.30 -0.37 1.62 2.16 0 0 -2.16 0 0 9.47 0.83 0.29 -11.41 13.10 4.57 4.77 0 0 -7.23 -0.20 2.00 2.87 0 0 3.95 -0.04 0.40 8.65 1.01 -1.70 2.84 -4.64 3.79 4.54 0 0 -7.40 -0.07 1.16 2.50 0 0 6.76 0 -0 7.69 0.66 -3.90 17.38 0.78 -0.07 3.21 0 0 -8.46 -0.17 -1.24 1.92 0 0 4.41 0 0 -4.06 26.61 -1.12 9.88 -3.93 3.99 -14.17 0 0 47.91 63.82 13.98 -26.12 0 0 0 0 17.12 -27.71 0 0 -9.52 -37.61 -27.24 -2.29 -0.46 1.83 -141.79 4.65 171.78 -5.29 0 0 24.80 0.35 22.00 -3.01 0 0 -10.64 -0.02 -0.33 -9.37 0.29 2.59 7.40 -3.36 -19.28 -4.34 0 0 8.29 0.18 -1.09 -2.16 0 0 10.45 -0.09 -0.99 -9.47 0.83 0.29 32.85 -1.32 -13.92 -4.77 0 0 31.23 -0.92 -2.11 -2.87 0 0 7.21 0.05 -2.14 -8.65 1.01 -1.70 22.56 -10.58 -17.10 -4.54 0 0 56.08 -0.62 -0.48 -2.50 0 0 9.02 -0 -1.26 -7.69 0.66 -3.90 17.28 -25.93 -8.78 -3.21 0 0 60.38 -3.86 -3.21 -1.92 0 0 60.70 -3.80 -3.14 8.73 -0 0 6.85 -6.38 22.39 0 -46.66 0 0 20.05 0 0 -40.14 0 -2.48 -8.65 1.32 0 -8.88 14.22 0 0 0 -8.73 0 -0 -6.29 -8.38 -17.47 0 -46.66 0 0 20.89 0 0 -40.14 0 1.62 -8.29 -1.24 0 -8.88 14.22 0 0 0 
0.35 96.62 -0.54 0.14 -2.95 -4.13 0.04 7.24 0 -0.47 0.53 0 0 16.55 -0 -2.06 8.77 -0.03 -0 34.21 -0 -0.28 23.88 1.20 0 6.29 0 0.01 -26.98 -0.06 4.06 26.61 -1.12 -0.68 -4.68 10.31 14.17 0 0 -41.02 63.98 -27.33 26.12 0 0 0 0 -25.49 27.71 0 0 -12.88 -23.38 11.32 2.29 -0.46 1.83 137.54 37.89 -164.22 5.29 0 0 -20.95 0.13 7.99 3.01 0 0 12.48 0 0 9.37 0.29 2.59 -12.94 1.90 -3.11 4.34 0 0 -7.31 -0.37 1.62 2.16 0 0 -2.16 0 0 9.47 0.83 0.29 -11.41 13.10 4.57 4.77 0 0 -7.23 -0.20 2.00 2.87 0 0 3.95 -0.04 0.40 8.65 1.01 -1.70 2.84 -4.64 3.79 4.54 0 0 -7.40 -0.07 1.16 2.50 0 0 6.76 0 -0 7.69 0.66 -3.90 17.38 0.78 -0.07 3.21 0 0 -8.46 -0.17 -1.24 1.92 0 0 4.41 0 0 -4.06 26.61 -1.12 9.98 -3.92 4.05 -14.17 0 0 47.79 63.81 13.95 -26.12 0 0 0 0 17.19 -27.71 0 0 -10.32 -34.20 -28.89 -2.29 -0.46 1.83 -141.79 4.65 171.77 -5.29 0 0 24.70 0.40 22.03 -3.01 0 0 -10.64 -0.02 -0.33 -9.37 0.29 2.59 7.00 -3.34 -19.21 -4.34 0 0 7.89 0.20 -1.00 -2.16 0 0 10.45 -0.09 -0.99 -9.47 0.83 0.29 32.49 -1.16 -13.84 -4.77 0 0 30.84 -0.86 -2.02 -2.87 0 0 7.21 0.05 -2.14 -8.65 1.01 -1.70 22.18 -10.43 -17.09 -4.54 0 0 55.67 -0.56 -0.44 -2.50 0 0 9.02 -0 -1.26 -7.69 0.66 -3.90 16.87 -25.83 -8.83 -3.21 0 0 60 -3.74 -3.14 -1.92 0 0 60.70 -3.80 -3.14 8.73 -0 0 6.88 -6.45 22.43 0 -46.66 0 0 20.11 0 0 -40.14 0 -2.49 -8.66 1.35 0 -8.88 14.22 0 0 0 -8.73 0 -0 -6.26 -8.44 -17.39 0 -46.66 0 0 20.87 0 0 -40.14 0 1.60 -8.25 -1.24 0 -8.88 14.22 0 0 0 
0.38 96.61 -0.55 0.13 -2.92 -4.25 0.04 7.24 0 -0.50 0.53 0.06 0 16.55 -0 -2.08 8.76 0 -0 34.21 -0 -0.25 23.84 1.19 0 6.29 0 -0 -26.98 -0.11 4.06 26.61 -1.12 -0.70 -4.69 10.35 14.17 0 0 -40.68 64.15 -27.66 26.12 0 0 0 0 -25.55 27.71 0 0 -12.94 -23.52 11.51 2.29 -0.46 1.83 137.54 37.89 -164.22 5.29 0 0 -20.95 0.13 8.00 3.01 0 0 12.48 0 0 9.37 0.29 2.59 -12.94 1.90 -3.11 4.34 0 0 -7.31 -0.37 1.62 2.16 0 0 -2.16 0 0 9.47 0.83 0.29 -11.41 13.10 4.57 4.77 0 0 -7.23 -0.20 2.00 2.87 0 0 3.95 -0.04 0.40 8.65 1.01 -1.70 2.84 -4.64 3.79 4.54 0 0 -7.40 -0.07 1.16 2.50 0 0 6.76 0 -0 7.69 0.66 -3.90 17.38 0.78 -0.07 3.21 0 0 -8.46 -0.17 -1.24 1.92 0 0 4.41 0 0 -4.06 26.61 -1.12 10.10 -3.90 4.11 -14.17 0 0 47.64 63.80 13.94 -26.12 0 0 0 0 17.27 -27.71 0 0 -11.00 -30.78 -30.42 -2.29 -0.46 1.83 -141.79 4.66 171.77 -5.29 0 0 24.60 0.46 22.06 -3.01 0 0 -10.64 -0.02 -0.33 -9.37 0.29 2.59 6.62 -3.33 -19.14 -4.34 0 0 7.51 0.21 -0.91 -2.16 0 0 10.45 -0.09 -0.99 -9.47 0.83 0.29 32.14 -1.00 -13.76 -4.77 0 0 30.47 -0.81 -1.93 -2.87 0 0 7.21 0.05 -2.14 -8.65 1.01 -1.70 21.81 -10.30 -17.09 -4.54 0 0 55.27 -0.51 -0.41 -2.50 0 0 9.02 -0 -1.26 -7.69 0.66 -3.90 16.47 -25.72 -8.87 -3.21 0 0 59.64 -3.62 -3.07 -1.92 0 0 60.70 -3.80 -3.14 8.73 -0 0 6.92 -6.53 22.49 0 -46.66 0 0 20.18 0 0 -40.14 0 -2.50 -8.68 1.38 0 -8.88 14.22 0 0 0 -8.73 0 -0 -6.22 -8.53 -17.29 0 -46.66 0 0 20.85 0 0 -40.14 0 1.58 -8.21 -1.24 0 -8.88 14.22 0 0 0 
0.43 96.61 -0.56 0.13 -2.89 -4.35 0.04 7.24 0 -0.50 0.51 0.07 0 16.55 -0 -2.02 8.77 -0.06 -0 34.21 -0 -0.24 23.81 1.19 0 6.29 0 -0.09 -26.99 -0.09 4.06 26.61 -1.12 -0.72 -4.69 10.39 14.17 0 0 -40.66 64.23 -27.74 26.12 0 0 0 0 -25.61 27.71 0 0 -12.99 -23.66 11.71 2.29 -0.46 1.83 137.54 37.89 -164.22 5.29 0 0 -20.96 0.13 8.00 3.01 0 0 12.48 0 0 9.37 0.29 2.59 -12.93 1.90 -3.11 4.34 0 0 -7.31 -0.37 1.62 2.16 0 0 -2.16 0 0 9.47 0.83 0.29 -11.41 13.10 4.57 4.77 0 0 -7.23 -0.20 2.00 2.87 0 0 3.95 -0.04 0.40 8.65 1.01 -1.70 2.84 -4.64 3.79 4.54 0 0 -7.40 -0.07 1.16 2.50 0 0 6.76 0 -0 7.69 0.66 -3.90 17.38 0.78 -0.07 3.21 0 0 -8.46 -0.17 -1.24 1.92 0 0 4.41 0 0 -4.06 26.61 -1.12 10.17 -3.88 4.17 -14.17 0 0 47.28 63.93 14.09 -26.12 0 0 0 0 17.33 -27.71 0 0 -11.53 -27.35 -31.85 -2.29 -0.46 1.83 -141.8 4.67 171.77 -5.29 0 0 24.51 0.51 22.09 -3.01 0 0 -10.64 -0.02 -0.33 -9.37 0.29 2.59 6.21 -3.32 -19.06 -4.34 0 0 7.10 0.22 -0.82 -2.16 0 0 10.45 -0.09 -0.99 -9.47 0.83 0.29 31.76 -0.83 -13.68 -4.77 0 0 30.06 -0.75 -1.83 -2.87 0 0 7.21 0.05 -2.14 -8.65 1.01 -1.70 21.42 -10.15 -17.09 -4.54 0 0 54.85 -0.46 -0.37 -2.50 0 0 9.02 -0 -1.26 -7.69 0.66 -3.90 16.05 -25.61 -8.91 -3.21 0 0 59.24 -3.50 -2.99 -1.92 0 0 60.70 -3.80 -3.14 8.73 -0 0 6.95 -6.61 22.54 0 -46.66 0 0 20.25 0 0 -40.14 0 -2.50 -8.70 1.41 0 -8.88 14.22 0 0 0 -8.73 0 -0 -6.19 -8.60 -17.20 0 -46.66 0 0 20.84 0 0 -40.14 0 1.55 -8.16 -1.24 0 -8.88 14.22 0 0 0 
